<?xml version="1.0" encoding="UTF-8" standalone="no"?>
<svg
   xmlns:dc="http://purl.org/dc/elements/1.1/"
   xmlns:cc="http://creativecommons.org/ns#"
   xmlns:rdf="http://www.w3.org/1999/02/22-rdf-syntax-ns#"
   xmlns:svg="http://www.w3.org/2000/svg"
   xmlns="http://www.w3.org/2000/svg"
   viewBox="0 0 172.45332 29.6"
   height="29.6"
   width="172.45332"
   xml:space="preserve"
   id="svg2"
   version="1.1"><metadata
     id="metadata8"><rdf:RDF><cc:Work
         rdf:about=""><dc:format>image/svg+xml</dc:format><dc:type
           rdf:resource="http://purl.org/dc/dcmitype/StillImage" /></cc:Work></rdf:RDF></metadata><defs
     id="defs6"><clipPath
       id="clipPath20"
       clipPathUnits="userSpaceOnUse"><path
         id="path18"
         d="M 0,0 H 1293 V 221.969 H 0 Z" /></clipPath></defs><g
     transform="matrix(1.3333333,0,0,-1.3333333,0,29.6)"
     id="g10"><g
       transform="scale(0.1)"
       id="g12"><g
         id="g14"><g
           clip-path="url(#clipPath20)"
           id="g16"><path
             id="path22"
             style="fill:#b1b869;fill-opacity:1;fill-rule:nonzero;stroke:none"
             d="M 0.25,120.664 H 8.37891 V 67.2578 H 52.6797 V 60.625 H 0.25 v 60.039" /><path
             id="path24"
             style="fill:#b1b869;fill-opacity:1;fill-rule:nonzero;stroke:none"
             d="m 129.047,101.914 c 0,10.449 -6.297,12.774 -14.09,12.774 H 82.0312 c -7.789,0 -14.0976,-2.325 -14.0976,-12.774 V 79.3555 c 0,-10.4414 6.3086,-12.7735 14.0976,-12.7735 h 32.9258 c 7.793,0 14.09,2.3321 14.09,12.7735 z M 59.8086,98.8594 c 0,15.1636 5.1445,22.4646 21.3945,22.4646 h 34.5859 c 16.258,0 21.391,-7.301 21.391,-22.4646 V 82.4336 c 0,-15.1758 -5.133,-22.4727 -21.391,-22.4727 H 81.2031 c -16.25,0 -21.3945,7.2969 -21.3945,22.4727 v 16.4258" /><path
             id="path26"
             style="fill:#b1b869;fill-opacity:1;fill-rule:nonzero;stroke:none"
             d="m 175.32,114.023 h -30.343 v 6.641 h 68.816 v -6.641 h -30.34 V 60.625 h -8.133 v 53.398" /><path
             id="path28"
             style="fill:#b1b869;fill-opacity:1;fill-rule:nonzero;stroke:none"
             d="m 249.273,114.023 h -30.347 v 6.641 h 68.816 v -6.641 H 257.395 V 60.625 h -8.122 v 53.398" /><path
             id="path30"
             style="fill:#b1b869;fill-opacity:1;fill-rule:nonzero;stroke:none"
             d="m 415.367,90.9766 c 9.043,0 12.856,2.4023 12.856,8.7031 v 5.4763 c 0,6.707 -2.907,8.867 -14.844,8.867 H 376.387 V 90.9766 h 38.98 z m -47.109,29.6874 h 48.019 c 17.332,0 20.071,-5.723 20.071,-17.004 v -4.8905 c 0,-8.457 -4.809,-10.7812 -11.032,-11.3593 v -0.1719 c 8.293,-1.4844 10.282,-5.8008 10.282,-11.2695 V 60.625 h -7.625 v 13.1836 c 0,9.375 -4.567,10.5391 -11.942,10.5391 H 376.387 V 60.625 h -8.129 v 60.039" /><path
             id="path32"
             style="fill:#b1b869;fill-opacity:1;fill-rule:nonzero;stroke:none"
             d="m 453.199,120.664 h 8.117 V 60.625 h -8.117 v 60.039" /><path
             id="path34"
             style="fill:#0b4171;fill-opacity:1;fill-rule:nonzero;stroke:none"
             d="m 453.199,60.7031 h 8.117 V 0.664062 h -8.117 V 60.7031" /><path
             id="path36"
             style="fill:#0b4171;fill-opacity:1;fill-rule:nonzero;stroke:none"
             d="m 568.477,19.5625 h 7.632 v -4.2187 c 0,-5.89068 3.149,-8.71099 13.266,-8.71099 h 25.215 c 11.773,0 15.25,2.48828 15.25,11.12109 0,7.5273 -2.985,9.4414 -13.106,9.4414 h -15.422 c -24.785,0 -32.917,1.4961 -32.917,17.4141 0,13.6914 8.132,16.7578 24.875,16.7578 h 17.507 c 20.145,0 25.196,-5.1367 25.196,-15.8399 v -2.082 h -7.618 c -0.167,9.5508 -1.164,11.293 -22.472,11.293 h -8.625 c -15.672,0 -21.238,-0.8399 -21.238,-10.7071 0,-7.125 2.242,-9.5273 14.933,-9.5273 H 615 c 15.84,0 22.465,-4.5703 22.465,-14.7578 V 15.8398 C 637.465,1.07422 625.367,0 613.34,0 h -22.555 c -11.847,0 -22.308,2.07031 -22.308,15.1758 v 4.3867" /><path
             id="path38"
             style="fill:#0b4171;fill-opacity:1;fill-rule:nonzero;stroke:none"
             d="m 709.004,45.1953 c 0,7.1289 -3.899,8.8672 -10.969,8.8672 h -38.094 v -23.125 h 38.782 c 6.465,0 10.281,2.3047 10.281,8.5273 z m -57.195,15.5078 h 48.14 c 10.969,0 17.199,-2.3359 17.199,-16.3476 0,-13.3477 -1.093,-20.0586 -18.781,-20.0586 H 659.941 V 0.664062 h -8.132 V 60.7031" /><path
             id="path40"
             style="fill:#0b4171;fill-opacity:1;fill-rule:nonzero;stroke:none"
             d="m 729.719,60.7031 h 57.84 V 54.0625 H 737.844 V 34.9102 h 45.418 v -6.629 H 737.844 V 7.29688 h 50.047 V 0.664062 H 729.719 V 60.7031" /><path
             id="path42"
             style="fill:#0b4171;fill-opacity:1;fill-rule:nonzero;stroke:none"
             d="m 799.102,60.7031 h 8.132 V 35.2422 h 3.301 l 37.649,25.4609 h 13.261 L 861.602,60.5352 818.574,31.8477 865.508,0.828125 865.344,0.664062 H 851.086 L 809.863,28.6133 h -2.629 V 0.664062 h -8.132 V 60.7031" /><path
             id="path44"
             style="fill:#0b4171;fill-opacity:1;fill-rule:nonzero;stroke:none"
             d="m 898.992,54.0625 h -30.34 v 6.6406 H 937.48 V 54.0625 H 907.117 V 0.664062 h -8.125 V 54.0625" /><path
             id="path46"
             style="fill:#0b4171;fill-opacity:1;fill-rule:nonzero;stroke:none"
             d="m 948.254,60.7031 h 8.125 V 0.664062 h -8.125 V 60.7031" /><path
             id="path48"
             style="fill:#0b4171;fill-opacity:1;fill-rule:nonzero;stroke:none"
             d="m 1040.21,41.9648 c 0,10.4375 -6.3,12.7735 -14.11,12.7735 h -32.909 c -7.8,0 -14.097,-2.336 -14.097,-12.7735 V 19.4062 c 0,-10.45308 6.297,-12.77339 14.097,-12.77339 h 32.909 c 7.81,0 14.11,2.32031 14.11,12.77339 z m -69.233,-3.0664 c 0,15.1641 5.128,22.4688 21.378,22.4688 h 34.585 c 16.25,0 21.39,-7.3047 21.39,-22.4688 V 22.4727 C 1048.33,7.29688 1043.19,0 1026.94,0 h -34.585 c -16.25,0 -21.378,7.29688 -21.378,22.4727 v 16.4257" /><path
             id="path50"
             style="fill:#1e4a7c;fill-opacity:1;fill-rule:nonzero;stroke:none"
             d="m 1062.18,60.7031 h 12.12 L 1125.81,7.96094 V 60.7031 h 8.13 V 0.664062 h -12.1 L 1070.31,53.3984 V 0.664062 h -8.13 V 60.7031" /><path
             id="path52"
             style="fill:#0b4171;fill-opacity:1;fill-rule:nonzero;stroke:none"
             d="m 1150.52,60.7031 h 57.8 v -6.6406 h -49.68 V 34.9102 h 45.39 v -6.629 h -45.39 V 7.29688 h 50.01 V 0.664062 h -58.13 V 60.7031" /><path
             id="path54"
             style="fill:#0b4171;fill-opacity:1;fill-rule:nonzero;stroke:none"
             d="m 1221.66,60.7031 h 12.11 L 1285.29,7.96094 V 60.7031 h 8.13 V 0.664062 h -12.11 L 1229.79,53.3984 V 0.664062 h -8.13 V 60.7031" /><path
             id="path56"
             style="fill:#b1b869;fill-opacity:1;fill-rule:nonzero;stroke:none"
             d="m 297.039,120.664 h 57.805 v -6.633 H 305.16 V 94.8828 h 45.399 V 88.2539 H 305.16 V 67.2578 h 50.016 v -6.6211 h -58.137 v 60.0273" /><path
             id="path58"
             style="fill:#0b4171;fill-opacity:1;fill-rule:nonzero;stroke:none"
             d="m 478.809,60.6836 h 12.097 L 542.438,7.94141 V 60.6836 h 8.128 V 0.644531 H 538.453 L 486.938,53.3789 V 0.644531 h -8.129 V 60.6836" /><path
             id="path60"
             style="fill:#040606;fill-opacity:1;fill-rule:nonzero;stroke:none"
             d="M 0.0742188,186.008 H 6.63672 v -3.645 c 0,-1.285 0.1875,-2.386 0.57031,-3.316 0.37891,-0.926 1.01172,-1.699 1.89063,-2.317 0.8789,-0.621 2.04684,-1.085 3.49614,-1.394 1.4492,-0.305 3.2695,-0.461 5.457,-0.461 h 21.6953 c 2.5195,0 4.625,0.156 6.3125,0.461 1.6836,0.309 3.0352,0.82 4.0312,1.535 1,0.711 1.711,1.688 2.1407,2.926 0.4257,1.238 0.6406,2.781 0.6406,4.637 0,1.617 -0.1758,2.949 -0.5313,4 -0.3593,1.043 -0.9687,1.875 -1.8203,2.496 -0.8554,0.617 -2.0117,1.043 -3.4648,1.281 -1.4492,0.242 -3.2695,0.359 -5.457,0.359 H 28.332 c -5.3359,0 -9.8008,0.141 -13.4218,0.43 -3.6133,0.281 -6.52739,0.926 -8.73832,1.922 -2.21094,1 -3.79297,2.5 -4.7461,4.496 C 0.472656,201.418 0,204.125 0,207.555 c 0,2.949 0.4375,5.351 1.32422,7.207 0.8789,1.855 2.21094,3.316 3.99219,4.383 1.78515,1.074 4.0039,1.812 6.67189,2.214 2.664,0.403 5.8047,0.61 9.4179,0.61 h 15.0547 c 4.3282,0 7.8946,-0.278 10.7032,-0.821 2.8047,-0.55 5.0195,-1.39 6.6328,-2.535 1.6172,-1.14 2.75,-2.566 3.3906,-4.281 0.6445,-1.715 0.9687,-3.711 0.9687,-5.992 v -1.785 h -6.5703 c -0.0468,2.043 -0.2148,3.699 -0.4961,4.961 -0.2851,1.257 -1.0586,2.246 -2.3203,2.957 -1.2578,0.715 -3.1875,1.191 -5.7812,1.429 -2.5938,0.235 -6.1719,0.36 -10.7383,0.36 h -7.4219 c -3.3711,0 -6.2304,-0.09 -8.5586,-0.254 -2.3359,-0.168 -4.2109,-0.559 -5.6328,-1.18 -1.43358,-0.613 -2.46873,-1.531 -3.10545,-2.742 -0.64453,-1.215 -0.96484,-2.891 -0.96484,-5.031 0,-1.524 0.15234,-2.805 0.46484,-3.856 0.30859,-1.047 0.92578,-1.89 1.85156,-2.531 0.92578,-0.645 2.23439,-1.106 3.92579,-1.391 1.6875,-0.289 3.8906,-0.429 6.6016,-0.429 h 20.6914 c 6.8046,0 11.7265,-1.024 14.7656,-3.067 3.0469,-2.047 4.5703,-5.258 4.5703,-9.633 v -3.355 c 0,-3.188 -0.5937,-5.684 -1.7852,-7.488 -1.1875,-1.813 -2.7578,-3.164 -4.707,-4.071 -1.9531,-0.902 -4.1758,-1.472 -6.6719,-1.711 -2.5,-0.234 -5.0351,-0.359 -7.6015,-0.359 H 19.2695 c -2.5703,0 -5.0117,0.156 -7.3164,0.465 -2.30857,0.309 -4.33982,0.93 -6.10154,1.855 -1.75781,0.93 -3.16406,2.246 -4.21094,3.961 -1.04687,1.715 -1.5664012,3.969 -1.5664012,6.778 v 3.785" /><path
             id="path62"
             style="fill:#040606;fill-opacity:1;fill-rule:nonzero;stroke:none"
             d="m 124.082,208.051 c 0,1.523 -0.203,2.785 -0.605,3.785 -0.407,0.996 -1.012,1.781 -1.821,2.355 -0.812,0.571 -1.797,0.961 -2.961,1.176 -1.168,0.215 -2.507,0.321 -4.031,0.321 H 80.7734 v -19.907 h 34.4606 c 2.809,0 4.981,0.547 6.528,1.641 1.543,1.094 2.32,3 2.32,5.707 z m -50.3008,13.347 h 42.5238 c 2.328,0 4.422,-0.171 6.277,-0.503 1.856,-0.333 3.398,-0.997 4.641,-1.997 1.234,-0.996 2.187,-2.429 2.851,-4.285 0.668,-1.847 1,-4.277 1,-7.273 0,-2.856 -0.133,-5.363 -0.39,-7.531 -0.262,-2.161 -0.926,-3.969 -2,-5.418 -1.071,-1.457 -2.676,-2.536 -4.817,-3.246 -2.137,-0.715 -5.113,-1.071 -8.922,-1.071 H 80.7734 v -20.336 h -6.9922 v 51.66" /><path
             id="path64"
             style="fill:#040606;fill-opacity:1;fill-rule:nonzero;stroke:none"
             d="m 142.773,221.398 h 50.735 v -5.71 h -43.742 v -16.485 h 42.027 v -5.707 h -42.027 v -18.051 h 44.023 v -5.707 h -51.016 v 51.66" /><path
             id="path66"
             style="fill:#040606;fill-opacity:1;fill-rule:nonzero;stroke:none"
             d="m 206.414,221.398 h 6.992 v -45.953 h 40.102 v -5.707 h -47.094 v 51.66" /><path
             id="path68"
             style="fill:#040606;fill-opacity:1;fill-rule:nonzero;stroke:none"
             d="m 299.391,221.398 h 6.992 v -38.605 c 0,-1.234 0.14,-2.352 0.429,-3.355 0.282,-0.997 0.829,-1.829 1.641,-2.493 0.805,-0.672 1.938,-1.179 3.387,-1.535 1.449,-0.355 3.363,-0.535 5.742,-0.535 h 24.258 c 2.383,0 4.297,0.18 5.75,0.535 1.449,0.356 2.578,0.863 3.387,1.535 0.804,0.664 1.359,1.496 1.64,2.493 0.281,1.003 0.43,2.121 0.43,3.355 v 38.605 h 6.992 v -38.671 c 0,-2.618 -0.348,-4.797 -1.035,-6.536 -0.688,-1.734 -1.774,-3.125 -3.246,-4.168 -1.477,-1.05 -3.379,-1.789 -5.707,-2.214 -2.332,-0.43 -5.141,-0.645 -8.418,-0.645 h -23.836 c -3.281,0 -6.086,0.215 -8.418,0.645 -2.332,0.425 -4.238,1.164 -5.707,2.214 -1.477,1.043 -2.559,2.434 -3.246,4.168 -0.696,1.739 -1.035,3.918 -1.035,6.536 v 38.671" /><path
             id="path70"
             style="fill:#040606;fill-opacity:1;fill-rule:nonzero;stroke:none"
             d="m 375.305,221.398 h 10.418 l 47.304,-45.382 v 45.382 h 6.993 v -51.66 h -10.415 l -47.308,45.379 v -45.379 h -6.992 v 51.66" /><path
             id="path72"
             style="fill:#040606;fill-opacity:1;fill-rule:nonzero;stroke:none"
             d="m 511.656,198.062 c 0,3.711 -0.285,6.719 -0.855,9.028 -0.571,2.305 -1.414,4.101 -2.535,5.387 -1.118,1.285 -2.5,2.136 -4.141,2.566 -1.641,0.43 -3.527,0.645 -5.668,0.645 h -36.605 v -40.243 h 35.46 c 2.141,0 4.094,0.18 5.852,0.535 1.758,0.36 3.274,1.129 4.531,2.321 1.258,1.187 2.239,2.933 2.926,5.246 0.688,2.305 1.035,5.383 1.035,9.238 z m -56.797,23.336 h 41.743 c 4.328,0 7.906,-0.398 10.738,-1.179 2.828,-0.785 5.086,-2.153 6.777,-4.106 1.688,-1.949 2.863,-4.59 3.528,-7.918 0.671,-3.332 1.003,-7.539 1.003,-12.629 0,-4.754 -0.332,-8.777 -1.003,-12.058 -0.665,-3.281 -1.84,-5.949 -3.528,-7.988 -1.691,-2.047 -3.972,-3.524 -6.851,-4.426 -2.875,-0.906 -6.504,-1.356 -10.879,-1.356 h -41.528 v 51.66" /><path
             id="path74"
             style="fill:#040606;fill-opacity:1;fill-rule:nonzero;stroke:none"
             d="m 532.988,221.398 h 50.735 v -5.71 H 539.98 v -16.485 h 42.028 v -5.707 H 539.98 v -18.051 h 44.024 v -5.707 h -51.016 v 51.66" /><path
             id="path76"
             style="fill:#040606;fill-opacity:1;fill-rule:nonzero;stroke:none"
             d="m 636.734,195.852 c 3.903,0 6.719,0.57 8.457,1.71 1.735,1.145 2.602,3.067 2.602,5.782 v 4.707 c 0,1.426 -0.176,2.629 -0.531,3.605 -0.36,0.977 -1.028,1.758 -1.996,2.352 -0.981,0.597 -2.286,1.027 -3.926,1.285 -1.645,0.266 -3.746,0.395 -6.317,0.395 h -31.824 v -19.836 z m -40.527,25.546 h 41.313 c 3.71,0 6.71,-0.312 8.988,-0.929 2.285,-0.621 4.035,-1.531 5.246,-2.75 1.215,-1.211 2.019,-2.735 2.426,-4.563 0.406,-1.832 0.605,-3.961 0.605,-6.386 v -4.211 c 0,-1.805 -0.238,-3.321 -0.715,-4.532 -0.472,-1.211 -1.14,-2.187 -1.996,-2.925 -0.851,-0.735 -1.863,-1.274 -3.031,-1.606 -1.168,-0.332 -2.418,-0.57 -3.746,-0.711 v -0.144 c 1.758,-0.336 3.223,-0.801 4.391,-1.391 1.164,-0.594 2.066,-1.324 2.71,-2.176 0.637,-0.855 1.094,-1.797 1.352,-2.82 0.266,-1.024 0.395,-2.129 0.395,-3.32 v -13.196 h -6.567 v 11.34 c 0,2.004 -0.234,3.606 -0.715,4.82 -0.472,1.211 -1.148,2.129 -2.027,2.747 -0.887,0.617 -1.965,1.023 -3.25,1.214 -1.281,0.192 -2.707,0.282 -4.281,0.282 h -34.106 v -20.403 h -6.992 v 51.66" /><path
             id="path78"
             style="fill:#040606;fill-opacity:1;fill-rule:nonzero;stroke:none"
             d="m 725.918,215.688 h -26.113 v 5.71 h 59.226 v -5.71 H 732.91 v -45.95 h -6.992 v 45.95" /><path
             id="path80"
             style="fill:#040606;fill-opacity:1;fill-rule:nonzero;stroke:none"
             d="m 769.309,169.738 h 6.99219 v 51.6602 H 769.309 Z" /><path
             id="path82"
             style="fill:#040606;fill-opacity:1;fill-rule:nonzero;stroke:none"
             d="m 792.219,221.398 h 6.992 v -45.953 h 40.105 v -5.707 h -47.097 v 51.66" /><path
             id="path84"
             style="fill:#040606;fill-opacity:1;fill-rule:nonzero;stroke:none"
             d="m 848.789,221.398 h 6.992 v -45.953 h 40.11 v -5.707 h -47.102 v 51.66" /><path
             id="path86"
             style="fill:#040606;fill-opacity:1;fill-rule:nonzero;stroke:none"
             d="m 904.094,186.008 h 6.558 v -3.645 c 0,-1.285 0.2,-2.386 0.578,-3.316 0.372,-0.926 1.004,-1.699 1.883,-2.317 0.879,-0.621 2.055,-1.085 3.496,-1.394 1.457,-0.305 3.274,-0.461 5.461,-0.461 h 21.692 c 2.515,0 4.629,0.156 6.316,0.461 1.692,0.309 3.027,0.82 4.031,1.535 0.996,0.711 1.711,1.688 2.141,2.926 0.43,1.238 0.645,2.781 0.645,4.637 0,1.617 -0.184,2.949 -0.54,4 -0.359,1.043 -0.964,1.875 -1.812,2.496 -0.859,0.617 -2.016,1.043 -3.469,1.281 -1.445,0.242 -3.269,0.359 -5.461,0.359 h -13.269 c -5.324,0 -9.793,0.141 -13.406,0.43 -3.626,0.281 -6.536,0.926 -8.743,1.922 -2.215,1 -3.8,2.5 -4.746,4.496 -0.957,2 -1.426,4.707 -1.426,8.137 0,2.949 0.442,5.351 1.321,7.207 0.879,1.855 2.207,3.316 3.992,4.383 1.785,1.074 4.004,1.812 6.672,2.214 2.664,0.403 5.801,0.61 9.422,0.61 h 15.05 c 4.325,0 7.899,-0.278 10.704,-0.821 2.8,-0.55 5.015,-1.39 6.636,-2.535 1.614,-1.14 2.746,-2.566 3.391,-4.281 0.637,-1.715 0.957,-3.711 0.957,-5.992 v -1.785 h -6.563 c -0.046,2.043 -0.214,3.699 -0.5,4.961 -0.281,1.257 -1.05,2.246 -2.312,2.957 -1.27,0.715 -3.191,1.191 -5.781,1.429 -2.598,0.235 -6.172,0.36 -10.742,0.36 h -7.422 c -3.379,0 -6.231,-0.09 -8.567,-0.254 -2.32,-0.168 -4.207,-0.559 -5.633,-1.18 -1.425,-0.613 -2.46,-1.531 -3.105,-2.742 -0.637,-1.215 -0.957,-2.891 -0.957,-5.031 0,-1.524 0.156,-2.805 0.461,-3.856 0.308,-1.047 0.926,-1.89 1.851,-2.531 0.93,-0.645 2.239,-1.106 3.926,-1.391 1.692,-0.289 3.891,-0.429 6.606,-0.429 h 20.691 c 6.797,0 11.719,-1.024 14.766,-3.067 3.047,-2.047 4.57,-5.258 4.57,-9.633 v -3.355 c 0,-3.188 -0.598,-5.684 -1.785,-7.488 -1.192,-1.813 -2.754,-3.164 -4.707,-4.071 -1.953,-0.902 -4.172,-1.472 -6.672,-1.711 -2.5,-0.234 -5.027,-0.359 -7.598,-0.359 h -19.414 c -2.566,0 -5,0.156 -7.312,0.465 -2.309,0.309 -4.336,0.93 -6.098,1.855 -1.766,0.93 -3.16,2.246 -4.207,3.961 -1.055,1.715 -1.57,3.969 -1.57,6.778 v 3.785" /><path
             id="path88"
             style="fill:#040606;fill-opacity:1;fill-rule:nonzero;stroke:none"
             d="m 1001.84,191.574 -29.613,29.824 h 9.414 l 23.689,-23.976 23.68,23.976 h 9.43 l -29.61,-29.824 v -21.836 h -6.99 v 21.836" /><path
             id="path90"
             style="fill:#040606;fill-opacity:1;fill-rule:nonzero;stroke:none"
             d="m 1048.14,221.398 h 10.41 l 47.31,-45.382 v 45.382 h 7 v -51.66 h -10.42 l -47.3,45.379 v -45.379 h -7 v 51.66" /><path
             id="path92"
             style="fill:#040606;fill-opacity:1;fill-rule:nonzero;stroke:none"
             d="m 1193.77,215.688 -17.33,-29.325 h 34.67 z m -4.36,5.71 h 8.72 l 30.68,-51.66 h -7.92 l -6.43,10.918 h -41.38 l -6.42,-10.918 h -7.92 l 30.67,51.66" /><path
             id="path94"
             style="fill:#040606;fill-opacity:1;fill-rule:nonzero;stroke:none"
             d="m 1226.81,221.398 h 7.85 l 25.05,-45.382 25.04,45.382 h 7.85 l -28.62,-51.66 h -8.56 l -28.61,51.66" /></g></g></g></g></svg>