<?xml version="1.0" encoding="utf-8"?>
<!-- Generator: Adobe Illustrator 18.1.1, SVG Export Plug-In . SVG Version: 6.00 Build 0)  -->
<svg version="1.1" id="Layer_1" xmlns="http://www.w3.org/2000/svg" xmlns:xlink="http://www.w3.org/1999/xlink" x="0px" y="0px"
	 viewBox="-301 394 18 5" enable-background="new -301 394 18 5" width="18px" height="5px" xml:space="preserve">
<g id="Your_Icon_1_">
	<path fill="#FFFFFF" d="M-293.3,394.3c-0.2-0.2-0.5-0.3-0.8-0.3c-0.3,0-0.6,0.1-0.8,0.3l-2.1,2l-2.1-2c-0.2-0.2-0.5-0.3-0.8-0.3
		c-0.3,0-0.6,0.1-0.8,0.3c-0.4,0.4-0.4,1.1,0,1.6l2.9,2.8c0.2,0.2,0.5,0.3,0.8,0.3h0c0.3,0,0.6-0.1,0.8-0.3l2.9-2.8
		c0.2-0.2,0.3-0.5,0.3-0.8C-293,394.8-293.1,394.5-293.3,394.3z"/>
</g>
</svg>
