<?xml version="1.0" encoding="utf-8"?>
<!-- Generator: Adobe Illustrator 19.2.1, SVG Export Plug-In . SVG Version: 6.00 Build 0)  -->
<svg version="1.1" id="Lager_1" xmlns="http://www.w3.org/2000/svg" xmlns:xlink="http://www.w3.org/1999/xlink" x="0px" y="0px"
	 viewBox="0 0 545.5 116" enable-background="new 0 0 545.5 116" xml:space="preserve">
<g>
	<path fill="#FFFFFF" d="M393.9,54.7h21c13.6,0,21.7,5.1,21.7,17.1c0,1.2-0.1,2.6-0.2,4c-2.1,16.5-10.2,19.9-25.6,19.9h-6.1
		l-2.5,18.4h-16.6L393.9,54.7z M411.6,82.2c6.2,0,8.1-0.8,8.9-7c0.1-0.8,0.2-1.5,0.2-2.1c0-4.3-2.2-5.2-7.3-5.2h-4.6l-2.1,14.3
		H411.6z"/>
	<path fill="#FFFFFF" d="M445.2,54.7h21.9c14.5,0,22.1,5.4,22.1,17.2c0,1.2-0.1,2.5-0.2,3.8c-1.2,9.4-5.8,13.3-13.4,15.9l10.2,21.7
		l0.1,0.8h-12.1c-4.8,0-5.6-0.5-7-3.9l-6.7-16.6h-3.7l-2.9,20.5h-16.6L445.2,54.7z M464.4,81.2c6.2,0,8.4-2.2,8.4-8.2
		c0-4.4-2.8-5.1-7.6-5.1H460l-1.8,13.3H464.4z"/>
	<path fill="#FFFFFF" d="M493.2,84.4c2.7-19.8,5.1-30.7,28.9-30.7c18.7,0,23.4,7.2,23.4,19.1c0,3.5-0.4,7.4-1,11.7
		c-2.7,19.4-5.1,30.6-28.5,30.6c-19.2,0-23.8-7.3-23.8-19C492.2,92.6,492.6,88.7,493.2,84.4z M516.5,100.9c8.8,0,9.4-3.1,11.3-16.4
		c0.6-4.4,1-8,1-10.2c0-4.8-1.7-6.3-7.6-6.3c-8.8,0-9.3,3.2-11.2,16.5c-0.6,4.4-1,7.7-1,10.2C508.9,99.5,510.7,100.9,516.5,100.9z"
		/>
</g>
<g>
	<path fill="#FFFFFF" d="M362.8,27.9h-54.8l2.8-8.7C316,3,319.1,2,332.7,2h66.4l-2.5,17.5c-0.8,5.7-2.3,9.5-8.1,18.9l-45.8,75.7H307
		L362.8,27.9z"/>
</g>
<path fill="#FFFFFF" d="M202.4,1.9h39.7c25.8,0,41,9.6,41,32.3c0,2.2-0.2,5-0.5,7.6c-4,31.2-19.3,37.6-48.3,37.6h-11.5l-4.8,34.8
	h-31.4L202.4,1.9z M235.8,53.9c11.8,0,15.4-1.6,16.8-13.2c0.2-1.6,0.3-2.8,0.3-4c0-8.1-4.2-9.8-13.8-9.8h-8.7l-3.9,27H235.8z"/>
<path fill="#FFFFFF" d="M85.1,58.1C90.2,20.6,94.7,0,139.8,0C175,0,184,13.7,184,36c0,6.7-0.8,14-1.9,22
	c-5.1,36.6-9.6,57.9-53.9,57.9c-36.3,0-45-13.8-45-35.9C83.3,73.4,84,66.1,85.1,58.1z M129.2,89.1c16.6,0,17.9-5.9,21.3-31
	c1.1-8.4,1.9-15.1,1.9-19.3c0-9.2-3.3-12-14.4-12c-16.6,0-17.5,6.1-21.1,31.2c-1.1,8.4-1.9,14.6-1.9,19.3
	C114.9,86.5,118.2,89.1,129.2,89.1z"/>
<path fill="#FFFFFF" d="M27.9,26.9H0l0.6-4.3C3.4,2.5,6.4,1.9,26.5,1.9h63l-2.8,20.3c-0.6,4-2.2,4.7-8.5,4.7H59.5l-12.3,87.2H15.8
	L27.9,26.9z"/>
</svg>
